<?xml version="1.0" encoding="UTF-8"?>
<svg width="32px" height="32px" viewBox="0 0 32 32" version="1.1" xmlns="http://www.w3.org/2000/svg" xmlns:xlink="http://www.w3.org/1999/xlink">
    <title>90A20F67-006D-4AF2-A4A4-6F1300228A70</title>
    <g id="Page-1" stroke="none" stroke-width="1" fill="none" fill-rule="evenodd">
        <g id="Icon-set" transform="translate(-245.000000, -1484.000000)">
            <g id="Group" transform="translate(245.000000, 1484.000000)">
                <path d="M16,0 C7.1635,0 0,7.1635 0,16 C0,24.8365 7.1635,32 16,32 C24.83675,32 32,24.8365 32,16 C32,7.1635 24.83675,0 16,0 L16,0 Z" id="Path" fill="#2767B2"></path>
                <path d="M20.52525,11.68475 C24.3015,11.68475 24.9995,14.1695 24.9995,17.40175 L25,23.9835 L21.27025,23.9835 L21.27025,18.1475 C21.27025,16.756 21.246,14.9655 19.33225,14.9655 C17.391,14.9655 17.09525,16.48175 17.09525,18.048 L17.09525,23.9835 L13.36975,23.9835 L13.36975,11.9825 L16.945,11.9825 L16.945,13.623 L16.996,13.623 C17.4935,12.6795 18.71025,11.68475 20.52525,11.68475 Z M11.02975,11.9825 L11.02975,23.9835 L7.296,23.9835 L7.296,11.9825 L11.02975,11.9825 Z M9.164,6.0165 C10.35675,6.0165 11.3255,6.9855 11.3255,8.1795 C11.32575,9.37375 10.357,10.34275 9.164,10.34275 C7.966,10.34275 7,9.37375 7,8.1795 C7,6.98575 7.966,6.0165 9.164,6.0165 Z" id="Combined-Shape" fill="#FFFFFF"></path>
            </g>
        </g>
    </g>
</svg>