<svg xmlns="http://www.w3.org/2000/svg" width="32" height="32" viewBox="0 0 32 32">
    <g fill="none" fill-rule="evenodd">
        <g>
            <g>
                <path fill="#FFFC00" d="M16 0C7.163 0 0 7.163 0 16s7.163 16 16 16 16-7.163 16-16S24.837 0 16 0" transform="translate(-326 -1484) translate(326 1484)"/>
                <path fill="#FFF" stroke="#000" stroke-width=".667" d="M23.646 21.723c-.354.084-1.162.01-1.091.792.07.781-.461.64-.461.64-2.078-.624-2.985.173-4.11.923-1.125.75-1.984.635-1.984.635s-.86.115-1.984-.635c-1.125-.75-2.032-1.547-4.11-.922 0 0-.531.14-.46-.64.07-.782-.738-.71-1.092-.793-.354-.083-1.698-.536-1.479-1.13.219-.594 1.422-.156 2.734-1.656 1.313-1.5 1.313-2.172 1.297-2.297-.015-.125.14-.312-.828-.656-.969-.344-1.219-.578-1.328-.75-.11-.172-.219-.625.375-.906.594-.282 1.828.734 1.86.093.03-.64-.009-3.61.44-4.453.45-.844 1.747-2.687 4.575-2.687 2.828 0 4.125 1.843 4.574 2.687.45.844.41 3.813.442 4.453.03.64 1.265-.375 1.859-.093.594.28.484.734.375.906-.11.172-.36.406-1.328.75-.969.344-.813.531-.828.656-.016.125-.016.797 1.297 2.297 1.312 1.5 2.515 1.062 2.734 1.656.219.594-1.125 1.047-1.48 1.13" transform="translate(-326 -1484) translate(326 1484)"/>
            </g>
        </g>
    </g>
</svg>
